<mxfile host="app.diagrams.net" modified="2022-09-07T00:42:20.457Z" agent="5.0 (Windows NT 10.0; Win64; x64) AppleWebKit/537.36 (KHTML, like Gecko) Chrome/104.0.0.0 Safari/537.36" etag="_tdbeN1FTXtlBa7I4aFg" version="20.2.8" type="github" pages="3">
  <diagram id="Gd7Hyvb9YNo9JDkE_sxB" name="algo">
    <mxGraphModel dx="1022" dy="436" grid="0" gridSize="10" guides="1" tooltips="1" connect="1" arrows="1" fold="1" page="1" pageScale="1" pageWidth="827" pageHeight="1169" math="0" shadow="0">
      <root>
        <mxCell id="0" />
        <mxCell id="1" parent="0" />
        <mxCell id="BRfpWw1YMrOVlkKp13VQ-27" style="edgeStyle=orthogonalEdgeStyle;rounded=0;orthogonalLoop=1;jettySize=auto;html=1;exitX=0.5;exitY=0;exitDx=0;exitDy=0;entryX=0.25;entryY=0;entryDx=0;entryDy=0;fontFamily=金梅粗铁塔字范例;fontSource=https%3A%2F%2Ffonts.googleapis.com%2Fcss%3Ffamily%3D%25E9%2587%2591%25E6%25A2%2585%25E7%25B2%2597%25E9%2593%2581%25E5%25A1%2594%25E5%25AD%2597%25E8%258C%2583%25E4%25BE%258B;fontColor=#000000;endArrow=open;endFill=0;strokeColor=#999999;strokeWidth=2;fillColor=#21C0A5;" parent="1" source="BRfpWw1YMrOVlkKp13VQ-1" target="BRfpWw1YMrOVlkKp13VQ-2" edge="1">
          <mxGeometry relative="1" as="geometry" />
        </mxCell>
        <mxCell id="BRfpWw1YMrOVlkKp13VQ-29" style="edgeStyle=orthogonalEdgeStyle;rounded=0;orthogonalLoop=1;jettySize=auto;html=1;exitX=0.5;exitY=1;exitDx=0;exitDy=0;entryX=0.25;entryY=1;entryDx=0;entryDy=0;fontFamily=金梅粗铁塔字范例;fontSource=https%3A%2F%2Ffonts.googleapis.com%2Fcss%3Ffamily%3D%25E9%2587%2591%25E6%25A2%2585%25E7%25B2%2597%25E9%2593%2581%25E5%25A1%2594%25E5%25AD%2597%25E8%258C%2583%25E4%25BE%258B;fontColor=#000000;endArrow=none;endFill=0;strokeColor=#999999;strokeWidth=2;fillColor=#21C0A5;startArrow=open;startFill=0;" parent="1" source="BRfpWw1YMrOVlkKp13VQ-1" target="BRfpWw1YMrOVlkKp13VQ-2" edge="1">
          <mxGeometry relative="1" as="geometry" />
        </mxCell>
        <mxCell id="BRfpWw1YMrOVlkKp13VQ-1" value="&lt;font face=&quot;金梅粗铁塔字范例&quot; data-font-src=&quot;https://fonts.googleapis.com/css?family=%E9%87%91%E6%A2%85%E7%B2%97%E9%93%81%E5%A1%94%E5%AD%97%E8%8C%83%E4%BE%8B&quot;&gt;基础算法&lt;/font&gt;" style="rounded=1;whiteSpace=wrap;html=1;sketch=0;shadow=1;glass=0;fillColor=#A680B8;fontColor=#ffffff;strokeColor=none;" parent="1" vertex="1">
          <mxGeometry x="131" y="299" width="120" height="60" as="geometry" />
        </mxCell>
        <mxCell id="BRfpWw1YMrOVlkKp13VQ-28" style="edgeStyle=orthogonalEdgeStyle;rounded=0;orthogonalLoop=1;jettySize=auto;html=1;exitX=0.75;exitY=0;exitDx=0;exitDy=0;entryX=0.5;entryY=0;entryDx=0;entryDy=0;fontFamily=金梅粗铁塔字范例;fontSource=https%3A%2F%2Ffonts.googleapis.com%2Fcss%3Ffamily%3D%25E9%2587%2591%25E6%25A2%2585%25E7%25B2%2597%25E9%2593%2581%25E5%25A1%2594%25E5%25AD%2597%25E8%258C%2583%25E4%25BE%258B;fontColor=#000000;endArrow=open;endFill=0;strokeColor=#999999;strokeWidth=2;fillColor=#21C0A5;" parent="1" source="BRfpWw1YMrOVlkKp13VQ-2" target="BRfpWw1YMrOVlkKp13VQ-4" edge="1">
          <mxGeometry relative="1" as="geometry" />
        </mxCell>
        <mxCell id="BRfpWw1YMrOVlkKp13VQ-30" style="edgeStyle=orthogonalEdgeStyle;rounded=0;orthogonalLoop=1;jettySize=auto;html=1;exitX=0.75;exitY=1;exitDx=0;exitDy=0;entryX=0.5;entryY=1;entryDx=0;entryDy=0;fontFamily=金梅粗铁塔字范例;fontSource=https%3A%2F%2Ffonts.googleapis.com%2Fcss%3Ffamily%3D%25E9%2587%2591%25E6%25A2%2585%25E7%25B2%2597%25E9%2593%2581%25E5%25A1%2594%25E5%25AD%2597%25E8%258C%2583%25E4%25BE%258B;fontColor=#000000;endArrow=none;endFill=0;strokeColor=#999999;strokeWidth=2;fillColor=#21C0A5;startArrow=open;startFill=0;" parent="1" source="BRfpWw1YMrOVlkKp13VQ-2" target="BRfpWw1YMrOVlkKp13VQ-4" edge="1">
          <mxGeometry relative="1" as="geometry" />
        </mxCell>
        <mxCell id="BRfpWw1YMrOVlkKp13VQ-2" value="&lt;font data-font-src=&quot;https://fonts.googleapis.com/css?family=%E9%87%91%E6%A2%85%E7%B2%97%E9%93%81%E5%A1%94%E5%AD%97%E8%8C%83%E4%BE%8B&quot; face=&quot;金梅粗铁塔字范例&quot;&gt;运筹算法&lt;/font&gt;" style="rounded=1;whiteSpace=wrap;html=1;fillColor=#cce5ff;strokeColor=none;sketch=0;shadow=1;glass=0;gradientColor=#999999;" parent="1" vertex="1">
          <mxGeometry x="346" y="299" width="120" height="60" as="geometry" />
        </mxCell>
        <mxCell id="BRfpWw1YMrOVlkKp13VQ-4" value="&lt;font data-font-src=&quot;https://fonts.googleapis.com/css?family=%E9%87%91%E6%A2%85%E7%B2%97%E9%93%81%E5%A1%94%E5%AD%97%E8%8C%83%E4%BE%8B&quot; face=&quot;金梅粗铁塔字范例&quot;&gt;强化学习算法&lt;/font&gt;" style="rounded=1;whiteSpace=wrap;html=1;fillColor=#ffff88;strokeColor=none;sketch=0;shadow=1;glass=0;gradientColor=#999999;" parent="1" vertex="1">
          <mxGeometry x="561" y="299" width="120" height="60" as="geometry" />
        </mxCell>
      </root>
    </mxGraphModel>
  </diagram>
  <diagram id="2h0tBtqogN7d-AHQfmF2" name="red-black-tree">
    <mxGraphModel dx="1022" dy="436" grid="0" gridSize="10" guides="1" tooltips="1" connect="1" arrows="1" fold="1" page="1" pageScale="1" pageWidth="827" pageHeight="1169" math="0" shadow="0">
      <root>
        <mxCell id="0" />
        <mxCell id="1" parent="0" />
        <mxCell id="fbvIBAIcn0zFYdKSKiHI-5" style="rounded=0;orthogonalLoop=1;jettySize=auto;html=1;exitX=0;exitY=1;exitDx=0;exitDy=0;entryX=1;entryY=0;entryDx=0;entryDy=0;endArrow=none;endFill=0;" parent="1" source="fbvIBAIcn0zFYdKSKiHI-2" edge="1">
          <mxGeometry relative="1" as="geometry">
            <mxPoint x="281.11700935788497" y="247.88299064211515" as="targetPoint" />
          </mxGeometry>
        </mxCell>
        <mxCell id="fbvIBAIcn0zFYdKSKiHI-10" style="edgeStyle=none;rounded=0;orthogonalLoop=1;jettySize=auto;html=1;exitX=1;exitY=1;exitDx=0;exitDy=0;entryX=0;entryY=0;entryDx=0;entryDy=0;endArrow=none;endFill=0;" parent="1" source="fbvIBAIcn0zFYdKSKiHI-2" target="fbvIBAIcn0zFYdKSKiHI-9" edge="1">
          <mxGeometry relative="1" as="geometry" />
        </mxCell>
        <mxCell id="fbvIBAIcn0zFYdKSKiHI-2" value="z.p" style="ellipse;whiteSpace=wrap;html=1;aspect=fixed;fillColor=#e51400;fontColor=#ffffff;strokeColor=#B20000;" parent="1" vertex="1">
          <mxGeometry x="336" y="145" width="47" height="47" as="geometry" />
        </mxCell>
        <mxCell id="fbvIBAIcn0zFYdKSKiHI-6" style="edgeStyle=none;rounded=0;orthogonalLoop=1;jettySize=auto;html=1;exitX=0;exitY=1;exitDx=0;exitDy=0;entryX=1;entryY=0;entryDx=0;entryDy=0;endArrow=none;endFill=0;" parent="1" source="fbvIBAIcn0zFYdKSKiHI-3" target="fbvIBAIcn0zFYdKSKiHI-2" edge="1">
          <mxGeometry relative="1" as="geometry" />
        </mxCell>
        <mxCell id="fbvIBAIcn0zFYdKSKiHI-3" value="z.p.p" style="ellipse;whiteSpace=wrap;html=1;aspect=fixed;fillColor=#e51400;fontColor=#ffffff;strokeColor=#B20000;" parent="1" vertex="1">
          <mxGeometry x="431" y="46" width="47" height="47" as="geometry" />
        </mxCell>
        <mxCell id="fbvIBAIcn0zFYdKSKiHI-4" value="y" style="ellipse;whiteSpace=wrap;html=1;aspect=fixed;fillColor=#000000;fontColor=#ffffff;strokeColor=#B20000;" parent="1" vertex="1">
          <mxGeometry x="533" y="145" width="47" height="47" as="geometry" />
        </mxCell>
        <mxCell id="fbvIBAIcn0zFYdKSKiHI-7" value="" style="shape=flexArrow;endArrow=classic;html=1;rounded=0;width=4.64;endSize=2.3648;endWidth=6.882716049382716;" parent="1" edge="1">
          <mxGeometry width="50" height="50" relative="1" as="geometry">
            <mxPoint x="424" y="69.42" as="sourcePoint" />
            <mxPoint x="389" y="69.42" as="targetPoint" />
          </mxGeometry>
        </mxCell>
        <mxCell id="fbvIBAIcn0zFYdKSKiHI-8" value="z" style="text;html=1;strokeColor=none;fillColor=none;align=center;verticalAlign=middle;whiteSpace=wrap;rounded=0;" parent="1" vertex="1">
          <mxGeometry x="359" y="54.5" width="29" height="30" as="geometry" />
        </mxCell>
        <mxCell id="fbvIBAIcn0zFYdKSKiHI-9" value="z" style="ellipse;whiteSpace=wrap;html=1;aspect=fixed;fillColor=#e51400;fontColor=#ffffff;strokeColor=#B20000;" parent="1" vertex="1">
          <mxGeometry x="427" y="252" width="47" height="47" as="geometry" />
        </mxCell>
        <mxCell id="fbvIBAIcn0zFYdKSKiHI-11" value="z" style="ellipse;whiteSpace=wrap;html=1;aspect=fixed;fillColor=#e51400;fontColor=#ffffff;strokeColor=#B20000;" parent="1" vertex="1">
          <mxGeometry x="253" y="248" width="47" height="47" as="geometry" />
        </mxCell>
        <mxCell id="fbvIBAIcn0zFYdKSKiHI-12" value="z.color = RED&lt;br&gt;违约的场景有：&lt;br&gt;&lt;div style=&quot;&quot;&gt;&lt;span style=&quot;background-color: initial;&quot;&gt;1.z is root, 属性2违反&lt;/span&gt;&lt;/div&gt;&lt;div style=&quot;&quot;&gt;&lt;span style=&quot;background-color: initial;&quot;&gt;2.z.parent is red, 属性4违反&lt;/span&gt;&lt;/div&gt;" style="text;html=1;strokeColor=none;fillColor=none;align=left;verticalAlign=top;whiteSpace=wrap;rounded=0;" parent="1" vertex="1">
          <mxGeometry x="32" y="54.5" width="210" height="102" as="geometry" />
        </mxCell>
      </root>
    </mxGraphModel>
  </diagram>
  <diagram id="Rz_5TAb9naDYnrahurBr" name="Page-3">
    <mxGraphModel dx="401" dy="224" grid="0" gridSize="10" guides="1" tooltips="1" connect="1" arrows="1" fold="1" page="1" pageScale="1" pageWidth="827" pageHeight="1169" math="0" shadow="0">
      <root>
        <mxCell id="0" />
        <mxCell id="1" parent="0" />
        <mxCell id="ZJ2Uiui-vQusYrHC0Uut-4" style="rounded=0;orthogonalLoop=1;jettySize=auto;html=1;exitX=1;exitY=1;exitDx=0;exitDy=0;entryX=0;entryY=0;entryDx=0;entryDy=0;endArrow=none;endFill=0;" edge="1" parent="1" source="ZJ2Uiui-vQusYrHC0Uut-1">
          <mxGeometry relative="1" as="geometry">
            <mxPoint x="354.68629150101344" y="216.68629150101333" as="targetPoint" />
          </mxGeometry>
        </mxCell>
        <mxCell id="ZJ2Uiui-vQusYrHC0Uut-1" value="z.color" style="ellipse;whiteSpace=wrap;html=1;aspect=fixed;fillColor=#666666;fontColor=#333333;strokeColor=#666666;" vertex="1" parent="1">
          <mxGeometry x="303" y="168" width="32" height="32" as="geometry" />
        </mxCell>
        <mxCell id="ZJ2Uiui-vQusYrHC0Uut-2" value="&lt;font color=&quot;#ffffff&quot;&gt;x&lt;/font&gt;" style="ellipse;whiteSpace=wrap;html=1;aspect=fixed;fillColor=#000000;" vertex="1" parent="1">
          <mxGeometry x="298" y="258" width="32" height="32" as="geometry" />
        </mxCell>
        <mxCell id="ZJ2Uiui-vQusYrHC0Uut-5" style="rounded=0;orthogonalLoop=1;jettySize=auto;html=1;entryX=1;entryY=0;entryDx=0;entryDy=0;endArrow=none;endFill=0;" edge="1" parent="1" target="ZJ2Uiui-vQusYrHC0Uut-2">
          <mxGeometry relative="1" as="geometry">
            <mxPoint x="355" y="235" as="sourcePoint" />
          </mxGeometry>
        </mxCell>
        <mxCell id="ZJ2Uiui-vQusYrHC0Uut-6" value="&lt;font color=&quot;#ffffff&quot;&gt;red&lt;/font&gt;" style="ellipse;whiteSpace=wrap;html=1;aspect=fixed;fillColor=#000000;" vertex="1" parent="1">
          <mxGeometry x="393" y="258" width="32" height="32" as="geometry" />
        </mxCell>
      </root>
    </mxGraphModel>
  </diagram>
</mxfile>
